# xmcd
#
# Track frame offsets: 
#        150
#        17270
#        32070
#        46500
#        53566
#        63670
#        82229
#        97182
#        103171
#        119184
#        131005
#        142721
#        150966
#        160300
#        174880
#        189168
#
# Disc length: 2608 seconds
#
# Revision: 0
# Processed by: cddbd v1.5.2PL0 Copyright (c) Steve Scherf et al.
# Submitted via: ExactAudioCopy v1.0b4
#
DISCID=c80a2e10
DTITLE=CeDell Davis - Last Man Standing
DYEAR=2015
DGENRE=Blues
TTITLE0=Catfish and Cornbread
TTITLE1=Rollin' and Tumblin'
TTITLE2=Chicken Hawk
TTITLE3=Purty Women
TTITLE4=Teenie Weenie Bit
TTITLE5=Who's Lovin' You Tonight
TTITLE6=Ridin' in My '74
TTITLE7=Mississippi Story
TTITLE8=Turn on Your Light
TTITLE9=Need You So
TTITLE10=Yackity Yack
TTITLE11=Wind up Grac-a-Phone
TTITLE12=The Horror
TTITLE13=Every Day Seem the Same
TTITLE14=Further on up the Road
TTITLE15=Ain't Feelin' to Go
EXTD=
EXTT0=
EXTT1=
EXTT2=
EXTT3=
EXTT4=
EXTT5=
EXTT6=
EXTT7=
EXTT8=
EXTT9=
EXTT10=
EXTT11=
EXTT12=
EXTT13=
EXTT14=
EXTT15=
PLAYORDER=
